<svg width="1130" height="298" viewBox="0 0 1130 298" fill="none" xmlns="http://www.w3.org/2000/svg">
<path d="M0.463898 99.3862H99.6939V0.15625H62.2109C62.2109 34.2583 34.5659 61.9042 0.462891 61.9042V99.3862H0.463898Z" fill="#0009FF"/>
<path d="M112.1 297.847V0.15625H153.446C185.415 0.15625 211.33 26.0722 211.33 58.0402V297.847H112.1Z" fill="#0009FF"/>
<path d="M438.47 0.15625H289.073C289.073 34.2533 261.426 61.8993 227.33 61.8993V236.104C261.427 236.104 289.073 263.75 289.073 297.847H438.47C438.47 263.75 466.117 236.104 500.213 236.104V61.8993C466.117 61.8993 438.47 34.2533 438.47 0.15625ZM438.195 186.612C433.702 191.091 429.843 194.964 426.191 198.616C418.17 206.637 411.265 213.542 401.383 223.424H326.161L289.349 186.612V111.39C293.842 106.911 297.701 103.038 301.353 99.3862C309.374 91.3652 316.279 84.4602 326.161 74.5782H401.383L438.195 111.39V186.612Z" fill="#0009FF"/>
<path d="M727.353 0.15625H577.956C577.956 34.2533 550.309 61.8993 516.213 61.8993V236.104C550.31 236.104 577.956 263.75 577.956 297.847H727.353C727.353 263.75 755 236.104 789.096 236.104V61.8993C755 61.8993 727.353 34.2533 727.353 0.15625ZM727.078 186.612C722.585 191.091 718.726 194.964 715.074 198.616C707.053 206.637 700.148 213.542 690.266 223.424H615.044L578.232 186.612V111.39C582.725 106.911 586.584 103.038 590.236 99.3862C598.257 91.3652 605.162 84.4602 615.044 74.5782H690.266L727.078 111.39V186.612Z" fill="#0009FF"/>
<path d="M1071.72 124.316H1062.83C1062.83 176.593 1020.45 218.972 968.174 218.972V240.034C984.897 240.034 998.456 253.593 998.456 270.317H1071.73C1071.73 253.593 1085.29 240.034 1102.01 240.034V154.599C1085.29 154.599 1071.73 141.04 1071.73 124.316H1071.72ZM1071.59 215.763C1069.39 217.958 1067.49 219.858 1065.7 221.65C1061.77 225.585 1058.38 228.97 1053.53 233.818H1016.64L998.587 215.763V178.871C1000.79 176.675 1002.68 174.775 1004.47 172.983C1008.41 169.048 1011.79 165.663 1016.64 160.816H1053.53L1071.59 178.871V215.763Z" fill="#0009FF"/>
<path d="M862.907 173.688H871.802C871.802 121.412 914.181 79.0324 966.458 79.0324V57.9701C949.734 57.9701 936.175 44.411 936.175 27.6875H862.904C862.904 44.411 849.345 57.9701 832.621 57.9701V143.405C849.345 143.405 862.904 156.964 862.904 173.688H862.907ZM863.042 82.2417C865.245 80.0461 867.138 78.146 868.929 76.3543C872.864 72.4194 876.25 69.0343 881.097 64.1867H917.989L936.044 82.2417V119.134C933.841 121.329 931.948 123.229 930.157 125.021C926.222 128.956 922.837 132.341 917.989 137.189H881.097L863.042 119.134V82.2417Z" fill="#0009FF"/>
<path d="M805.096 297.846H897.469L964.15 156.375L805.096 297.846Z" fill="#0009FF"/>
<path d="M1129.54 0.15625H1037.16L970.482 141.623L1129.54 0.15625Z" fill="#0009FF"/>
</svg>
