<svg width="264" height="299" viewBox="0 0 264 299" fill="none" xmlns="http://www.w3.org/2000/svg">
<path d="M125.798 0.65625H26.5684V99.8862H64.0514C64.0514 65.7842 91.6963 38.1382 125.799 38.1382L125.798 0.65625Z" fill="#0009FF"/>
<path d="M126.137 99.8867H100.99C100.99 127.289 78.777 149.502 51.375 149.502C78.777 149.502 100.99 171.715 100.99 199.117H126.137V99.8867Z" fill="#0009FF"/>
<path d="M26.5684 199.118V298.348H125.798V260.865C91.6963 260.865 64.0503 233.22 64.0503 199.117L26.5684 199.118Z" fill="#0009FF"/>
<path d="M138.203 298.347V0.65625H179.549C211.518 0.65625 237.433 26.5722 237.433 58.5402V240.462C237.433 272.431 211.517 298.346 179.549 298.346H138.203V298.347Z" fill="#0009FF"/>
</svg>
