<?xml version="1.0" encoding="UTF-8"?>
<svg id="Layer_2" xmlns="http://www.w3.org/2000/svg" viewBox="0 0 408.2 445.61">
  <defs>
    <style>
      .cls-1 {
        fill: #cfff49;
      }

      .cls-2 {
        fill: #0009ff;
      }

      .cls-3 {
        fill: #03c319;
      }
    </style>
  </defs>
  <g id="Layer_1-2" data-name="Layer_1">
    <g>
      <path class="cls-1" d="M408.1,238.11l-40.2,40.2h-119.4v167.3h-48.4v-200.8c0-5.7,1-11.2,2.9-16.2.5-1.6,1.2-3.1,2-4.6,1-2,2.1-3.9,3.3-5.6,3.7-5.4,8.5-10,14-13.3,7.1-4.5,15.7-7.1,24.6-7.1h121.1l40.2,40.2-.1-.1Z"/>
      <path class="cls-3" d="M208.2,190.91v24c-2,2.8-3.5,5.8-4.8,9-.6,1.5-1.2,3.1-1.6,4.6-1.2,4.1-1.8,8.4-1.8,12.9v204.1h-31.9v-173.9c0-1-.1-2-.1-3.1v-40.1H40.2L0,188.21l40.2-40.2h123.9c1.3,0,2.6,0,3.9.2,22.1,1.9,39.5,20.1,40.2,42.5h0v.2Z"/>
      <path class="cls-2" d="M248.3,194.51h-1.4c-9.9,0-19.1,3.1-26.6,8.4-4.7,3.2-8.8,7.3-12,12v-27.2c0-23.1-17.7-42-40.3-44V40.11h80.3v154.4Z"/>
      <rect class="cls-2" x="179.71" y="11.74" width="56.7" height="56.7" transform="translate(32.59 158.86) rotate(-45)"/>
    </g>
  </g>
</svg>