<?xml version="1.0" encoding="UTF-8"?>
<svg id="Layer_2" xmlns="http://www.w3.org/2000/svg" viewBox="0 0 375.5 375.6">
  <defs>
    <style>
      .cls-1 {
        fill: #cfff49;
      }
    </style>
  </defs>
  <g id="Layer_1-2" data-name="Layer_1">
    <path class="cls-1" d="M343.5,219.8l32-31.9-31.8-31.8h-79.2l39.6-39.6h0l-45.1-45.1-46.9,46.9-3.2,3.2c6.9-6.9,10.7-16.1,10.7-25.8v-63.7L187.7,0l-31.7,31.8v79.2l-39.6-39.6-45.1,45.1,39.6,39.6H31.7L0,187.9l31.9,31.9h63.7c9.7,0,18.9-3.8,25.8-10.7l-3.2,3.2-46.9,46.8h0l45.1,45.1,39.6-39.6v79.2l31.7,31.8,32-32v-63.7c0-9.7-3.8-18.9-10.7-25.8l50.1,50.1,45.1-45.1h0l-45.6-45.6-3.2-3.3c6.7,6.1,15.4,9.4,24.5,9.4h63.7l-.1.2ZM167.1,212.4c-.8-.9-1.7-1.6-2.6-2.4l-.1-.1c-.4-.5-.8-1-1.2-1.4l-.6-.7-.4-.4s-.2-.2-.3-.3l-19.2-19.2,20.5-20.6c.6-.6,1.3-1.3,1.9-2.1.7-.6,1.4-1.3,2.1-1.9l20.5-20.5,19.2,19.3c.9.9,1.8,1.7,2.8,2.5,0,0,.1,0,.1.1.7.9,1.5,1.7,2.3,2.5h0l20.5,20.7h0l-19.5,19.5c-.9,1-1.9,2-2.7,3.1h0c-1.3,1-2.5,2.1-3.6,3.2l-19.2,19.2-20.5-20.5h0Z"/>
  </g>
</svg>